<?xml version="1.0" encoding="UTF-8"?>
<!-- Generator: Adobe Illustrator 15.0.2, SVG Export Plug-In . SVG Version: 6.00 Build 0)  -->
<!DOCTYPE svg PUBLIC "-//W3C//DTD SVG 1.1//EN" "http://www.w3.org/Graphics/SVG/1.1/DTD/svg11.dtd">
<svg xmlns="http://www.w3.org/2000/svg" xmlns:xlink="http://www.w3.org/1999/xlink" version="1.1" id="Layer_1" x="0px" y="0px" width="512px" height="682.667px" viewBox="0 0 512 682.667" enable-background="new 0 0 512 682.667" xml:space="preserve">
<g>
	<path d="M42.667,682.667h426.666C492.875,682.667,512,663.542,512,640V170.667C512,147.114,492.875,128,469.333,128h-85.541   C382.75,57.125,326.021,0,256,0S129.239,57.125,128.208,128H42.667C19.114,128,0,147.114,0,170.667V640   C0,663.542,19.114,682.667,42.667,682.667z M469.333,170.667V640H42.667V170.667H469.333z M256,42.667   c46.375,0,84.083,38.104,85.125,85.333h-170.25C171.906,80.771,209.625,42.667,256,42.667z M192,256h128   c11.771,0,21.333-9.562,21.333-21.333c0-11.771-9.562-21.334-21.333-21.334H192c-11.771,0-21.333,9.562-21.333,21.334   C170.667,246.438,180.229,256,192,256z" fill="#FE5353"/>
</g>
</svg>
